<?xml version="1.0" encoding="UTF-8" standalone="no"?>
<!-- Created with Inkscape (http://www.inkscape.org/) -->

<svg
   width="196"
   height="64"
   viewBox="0 0 51.858329 16.933333"
   version="1.1"
   id="svg5"
   xml:space="preserve"
   inkscape:version="1.2 (dc2aeda, 2022-05-15)"
   sodipodi:docname="agencylogotype.svg"
   xmlns:inkscape="http://www.inkscape.org/namespaces/inkscape"
   xmlns:sodipodi="http://sodipodi.sourceforge.net/DTD/sodipodi-0.dtd"
   xmlns="http://www.w3.org/2000/svg"
   xmlns:svg="http://www.w3.org/2000/svg"><sodipodi:namedview
     id="namedview7"
     pagecolor="#ffffff"
     bordercolor="#000000"
     borderopacity="0.25"
     inkscape:showpageshadow="2"
     inkscape:pageopacity="0.0"
     inkscape:pagecheckerboard="0"
     inkscape:deskcolor="#d1d1d1"
     inkscape:document-units="mm"
     showgrid="false"
     inkscape:zoom="3.0220204"
     inkscape:cx="67.008151"
     inkscape:cy="56.584661"
     inkscape:window-width="1440"
     inkscape:window-height="900"
     inkscape:window-x="0"
     inkscape:window-y="0"
     inkscape:window-maximized="0"
     inkscape:current-layer="layer1" /><defs
     id="defs2"><rect
       x="45.177487"
       y="41.917256"
       width="113.40946"
       height="36.095415"
       id="rect408" /></defs><g
     inkscape:label="Layer 1"
     inkscape:groupmode="layer"
     id="layer1"><g
       id="g586"
       transform="translate(1.4148646,0.12055189)"><g
         id="g194"
         transform="matrix(0.01616226,0,0,0.01616226,2.3858104,4.3879773)"><g
           id="g138">
	<g
   id="g136">
		<path
   d="M 438.2,0 H 51.6 C 23.1,0 0,23.2 0,51.6 v 386.6 c 0,28.5 23.2,51.6 51.6,51.6 h 386.6 c 28.5,0 51.6,-23.2 51.6,-51.6 V 51.6 C 489.8,23.2 466.6,0 438.2,0 Z m 27.1,438.2 c 0,14.9 -12.2,27.1 -27.1,27.1 H 51.6 c -14.9,0 -27.1,-12.2 -27.1,-27.1 V 51.6 c 0,-14.9 12.2,-27.1 27.1,-27.1 h 386.6 c 14.9,0 27.1,12.2 27.1,27.1 z"
   id="path132" />
		<path
   d="m 256.4,113 c -0.1,-0.2 -0.2,-0.3 -0.2,-0.5 -0.2,-0.4 -0.4,-0.8 -0.6,-1.2 -0.2,-0.3 -0.4,-0.7 -0.6,-1 -0.2,-0.3 -0.5,-0.6 -0.7,-0.9 -0.3,-0.3 -0.5,-0.6 -0.8,-0.9 -0.3,-0.3 -0.5,-0.5 -0.8,-0.7 -0.3,-0.3 -0.7,-0.5 -1,-0.8 -0.3,-0.2 -0.6,-0.4 -0.9,-0.5 -0.4,-0.2 -0.8,-0.4 -1.3,-0.6 -0.2,-0.1 -0.3,-0.2 -0.5,-0.2 -0.2,-0.1 -0.3,-0.1 -0.5,-0.1 -0.5,-0.1 -0.9,-0.3 -1.4,-0.3 -0.3,-0.1 -0.7,-0.1 -1,-0.2 -0.4,0 -0.8,-0.1 -1.3,-0.1 -0.4,0 -0.8,0 -1.2,0.1 -0.4,0 -0.7,0.1 -1.1,0.2 -0.5,0.1 -0.9,0.2 -1.3,0.3 -0.2,0.1 -0.3,0.1 -0.5,0.1 -0.2,0.1 -0.3,0.2 -0.5,0.2 -0.4,0.2 -0.8,0.4 -1.2,0.6 -0.3,0.2 -0.6,0.4 -0.9,0.5 -0.4,0.2 -0.7,0.5 -1,0.8 -0.3,0.2 -0.6,0.5 -0.8,0.7 -0.3,0.3 -0.6,0.6 -0.8,0.9 -0.3,0.3 -0.5,0.6 -0.7,0.9 -0.2,0.3 -0.4,0.6 -0.6,1 -0.2,0.4 -0.4,0.8 -0.6,1.2 -0.1,0.2 -0.2,0.3 -0.2,0.5 l -91.5,255.6 c -2.3,6.4 1,13.4 7.4,15.7 1.4,0.5 2.8,0.7 4.1,0.7 5,0 9.7,-3.1 11.5,-8.1 l 26.2,-73.3 h 106.3 c 0.3,0 0.6,-0.1 1,-0.1 l 26.2,73.4 c 1.8,5 6.5,8.1 11.5,8.1 1.4,0 2.8,-0.2 4.1,-0.7 6.4,-2.3 9.7,-9.3 7.4,-15.7 z M 200,279 244.9,153.5 289.8,279 Z"
   id="path134" />
	</g>
</g><g
           id="g140">
</g><g
           id="g142">
</g><g
           id="g144">
</g><g
           id="g146">
</g><g
           id="g148">
</g><g
           id="g150">
</g><g
           id="g152">
</g><g
           id="g154">
</g><g
           id="g156">
</g><g
           id="g158">
</g><g
           id="g160">
</g><g
           id="g162">
</g><g
           id="g164">
</g><g
           id="g166">
</g><g
           id="g168">
</g></g><text
         xml:space="preserve"
         transform="matrix(0.49667395,0,0,0.48195482,-10.453369,-14.841615)"
         id="text406"
         style="font-weight:bold;font-family:'PT Sans';-inkscape-font-specification:'PT Sans Bold';white-space:pre;shape-inside:url(#rect408);fill:#000000;stroke-width:0;stroke-linecap:round;stroke-linejoin:round"><tspan
           x="45.177734"
           y="52.728211"
           id="tspan634"><tspan
             style="font-weight:normal;font-family:'Euphemia UCAS';-inkscape-font-specification:'Euphemia UCAS'"
             id="tspan632">Agencyname</tspan></tspan></text></g></g></svg>
