<?xml version="1.0" encoding="UTF-8"?>
<svg width="" height="" version="1.1" viewBox="0 0 44.257 5.5" xml:space="preserve" xmlns="http://www.w3.org/2000/svg"><g transform="translate(-3.8007 -4.5085)"><g transform="translate(1.4149 .12055)"><g transform="matrix(.016162 0 0 .016162 2.3858 4.388)">
<!-- <svg width="167.27" height="29.92" version="1.1" viewBox="0 0 44.257 7.9163" xml:space="preserve" xmlns="http://www.w3.org/2000/svg"><g transform="translate(-3.8007 -4.5085)"><g transform="translate(1.4149 .12055)"><g transform="matrix(.016162 0 0 .016162 2.3858 4.388)"> -->
	
		<path d="m438.2 0h-386.6c-28.5 0-51.6 23.2-51.6 51.6v386.6c0 28.5 23.2 51.6 51.6 51.6h386.6c28.5 0 51.6-23.2 51.6-51.6v-386.6c0-28.4-23.2-51.6-51.6-51.6zm27.1 438.2c0 14.9-12.2 27.1-27.1 27.1h-386.6c-14.9 0-27.1-12.2-27.1-27.1v-386.6c0-14.9 12.2-27.1 27.1-27.1h386.6c14.9 0 27.1 12.2 27.1 27.1z"/>
		<path d="m256.4 113c-0.1-0.2-0.2-0.3-0.2-0.5l-0.6-1.2c-0.2-0.3-0.4-0.7-0.6-1s-0.5-0.6-0.7-0.9c-0.3-0.3-0.5-0.6-0.8-0.9s-0.5-0.5-0.8-0.7c-0.3-0.3-0.7-0.5-1-0.8-0.3-0.2-0.6-0.4-0.9-0.5-0.4-0.2-0.8-0.4-1.3-0.6-0.2-0.1-0.3-0.2-0.5-0.2-0.2-0.1-0.3-0.1-0.5-0.1-0.5-0.1-0.9-0.3-1.4-0.3-0.3-0.1-0.7-0.1-1-0.2-0.4 0-0.8-0.1-1.3-0.1-0.4 0-0.8 0-1.2 0.1-0.4 0-0.7 0.1-1.1 0.2-0.5 0.1-0.9 0.2-1.3 0.3-0.2 0.1-0.3 0.1-0.5 0.1-0.2 0.1-0.3 0.2-0.5 0.2l-1.2 0.6c-0.3 0.2-0.6 0.4-0.9 0.5-0.4 0.2-0.7 0.5-1 0.8-0.3 0.2-0.6 0.5-0.8 0.7-0.3 0.3-0.6 0.6-0.8 0.9-0.3 0.3-0.5 0.6-0.7 0.9s-0.4 0.6-0.6 1l-0.6 1.2c-0.1 0.2-0.2 0.3-0.2 0.5l-91.5 255.6c-2.3 6.4 1 13.4 7.4 15.7 1.4 0.5 2.8 0.7 4.1 0.7 5 0 9.7-3.1 11.5-8.1l26.2-73.3h106.3c0.3 0 0.6-0.1 1-0.1l26.2 73.4c1.8 5 6.5 8.1 11.5 8.1 1.4 0 2.8-0.2 4.1-0.7 6.4-2.3 9.7-9.3 7.4-15.7zm-56.4 166 44.9-125.5 44.9 125.5z"/>
	
</g><g transform="matrix(.49667 0 0 .48195 -10.453 -14.842)" stroke-linecap="round" stroke-linejoin="round" stroke-width="0" style="shape-inside:url(#rect408);white-space:pre" aria-label="Agencyname"><path d="m47.533 48.89h2.6895l-1.3184-4.1953zm0.96094-5.3438h0.9668l3.0469 9.1816h-1.1016l-0.97852-3.1289h-3.0996l-0.98438 3.1289h-0.99023z"/><path d="m56.006 50.074q0.36328 0 0.61524-0.11719 0.25781-0.12305 0.42188-0.3457 0.16406-0.22266 0.23438-0.5332 0.07617-0.31055 0.07617-0.69141 0-0.28711-0.08203-0.55078-0.08203-0.26953-0.25195-0.46875-0.16406-0.19922-0.42188-0.31641-0.25781-0.12305-0.60938-0.12305-0.42773 0-0.70898 0.14062-0.28125 0.13477-0.45117 0.35742t-0.24023 0.50391q-0.07031 0.28125-0.07031 0.56836 0 0.29297 0.08789 0.57422 0.09375 0.28125 0.27539 0.50391 0.1875 0.22266 0.46289 0.36328 0.28125 0.13476 0.66211 0.13476zm-1.3652 2.3965q-0.26367 0.28711-0.41016 0.57422-0.14062 0.28711-0.14062 0.55664 0 0.35742 0.15234 0.58594 0.15234 0.23438 0.39258 0.36914 0.24023 0.13477 0.53906 0.1875 0.29883 0.05273 0.59766 0.05273 0.16406 0 0.39258-0.02344 0.23438-0.01758 0.48047-0.06445 0.25195-0.04687 0.49219-0.12891 0.24609-0.07617 0.43945-0.19336 0.19336-0.11719 0.31055-0.28125 0.12305-0.1582 0.12305-0.36914 0-0.20508-0.12891-0.36914-0.12305-0.1582-0.33398-0.28125-0.20508-0.12305-0.49219-0.22266-0.28125-0.09961-0.9668-0.22852-0.45703-0.07031-0.71484-0.09375-0.25195-0.0293-0.44531-0.04102-0.19336-0.01758-0.28711-0.0293zm4.1543-5.3027q-0.23438-0.0059-0.43359 0.02344-0.19922 0.0293-0.39258 0.08789 0.14648 0.22266 0.24609 0.50977 0.10547 0.28125 0.10547 0.66211 0 0.57422-0.19922 0.99609-0.19922 0.41602-0.5332 0.69141-0.33398 0.26953-0.76758 0.4043-0.43359 0.12891-0.90234 0.12891-0.39844 0-0.82617-0.09961-0.09375 0.01172-0.24024 0.06445-0.14648 0.05273-0.28711 0.14062-0.13477 0.08789-0.23438 0.20508-0.09961 0.11133-0.09961 0.24609 0 0.15234 0.20508 0.24024 0.20508 0.08789 0.53906 0.15234 0.33398 0.05859 1.1836 0.17578 0.89648 0.14648 1.3184 0.26953 0.42774 0.11719 0.76172 0.31641 0.33398 0.19922 0.53906 0.48633 0.20508 0.29297 0.20508 0.71484 0 0.4043-0.15234 0.69727-0.15234 0.29297-0.41016 0.49805-0.25195 0.21094-0.58594 0.33984-0.33398 0.13477-0.70312 0.21094-0.36914 0.07617-0.75 0.09961-0.375 0.0293-0.71484 0.0293-0.53906 0-0.99024-0.09375-0.44531-0.09375-0.76758-0.29297-0.32227-0.19336-0.50391-0.49805-0.18164-0.29883-0.18164-0.71484 0-0.22266 0.07617-0.44531 0.08203-0.2168 0.2168-0.41602 0.14062-0.19922 0.31641-0.36914 0.18164-0.16992 0.38086-0.30469-0.1582-0.07617-0.31055-0.1582-0.15234-0.08789-0.27539-0.19336-0.11719-0.11133-0.19336-0.25195-0.07617-0.14648-0.07617-0.33984 0-0.21094 0.12305-0.38672 0.12891-0.17578 0.31055-0.31641 0.1875-0.14062 0.39258-0.23438t0.36328-0.13477q-0.49219-0.28125-0.74414-0.71484-0.25195-0.43945-0.25195-1.0957 0-0.5332 0.21094-0.94336 0.2168-0.41602 0.5625-0.69141 0.3457-0.27539 0.79102-0.41602 0.44531-0.14648 0.9082-0.14648 0.4043 0 0.80859 0.11133t0.75586 0.33398q0.45703-0.17578 0.88476-0.24609 0.43359-0.07031 0.82031-0.07031l-0.10547 0.75z"/><path d="m62.633 47.027q-0.82617 0-1.248 0.56836-0.42188 0.5625-0.45117 1.2773h3.2871q-0.02344-0.75586-0.375-1.3008-0.35156-0.54492-1.2129-0.54492zm2.6367 4.5703q-0.41602 0.55078-1.0137 0.89648-0.5918 0.33984-1.5527 0.33984-1.2422 0-1.998-0.87891-0.75586-0.88477-0.75586-2.4902 0-1.4004 0.68555-2.2793 0.68555-0.88476 2.0098-0.88476 1.1191 0 1.7695 0.61523 0.65039 0.61524 0.73242 1.7168 0.03516 0.41602 0.01758 0.87305h-4.2422q0 1.0488 0.48047 1.8047 0.48047 0.75 1.3125 0.75 0.60352 0 1.0547-0.25195t0.83203-0.75z"/><path d="m66.869 47.215q0-0.38086-0.05273-0.81445h0.89648q0.05273 0.25781 0.07031 0.5625 0.4043-0.26367 0.98438-0.46289 0.58594-0.19922 1.166-0.19922 0.89648 0 1.418 0.52148 0.52734 0.52148 0.52734 1.4824v4.4238h-0.92578v-4.3477q0-0.56836-0.29883-0.94336-0.29883-0.38086-0.84375-0.38086t-1.0781 0.16406q-0.5332 0.16406-0.9375 0.42188v5.0859h-0.92578z"/><path d="m78.623 51.685q-0.35156 0.52148-0.9082 0.83203-0.55664 0.30469-1.459 0.30469-1.3184 0-2.0977-0.91406-0.7793-0.91992-0.7793-2.3672 0-1.4062 0.7793-2.3203 0.78516-0.91992 2.1094-0.91992 0.79102 0 1.2832 0.24023 0.49805 0.23438 0.82617 0.63281l-0.60352 0.55078q-0.30469-0.39258-0.67383-0.56836-0.36328-0.17578-0.87305-0.17578-0.85547 0-1.3652 0.69727-0.50977 0.69141-0.50977 1.7695 0 1.1133 0.54492 1.8984 0.54492 0.78516 1.3594 0.78516 0.67969 0 1.0488-0.23438 0.375-0.24023 0.66797-0.65625z"/><path d="m82.197 51.463 1.6641-5.0625h1.002l-2.5254 6.8086q-0.21094 0.54492-0.43359 0.95508t-0.49805 0.69141q-0.26953 0.28711-0.64453 0.43359-0.36914 0.15234-0.91406 0.15234-0.42773 0-0.94922-0.11133l0.16992-0.88477q0.35742 0.14648 0.75 0.14648 0.36914 0 0.62109-0.11719 0.25195-0.11133 0.43945-0.32812t0.32812-0.5332q0.14648-0.31641 0.29883-0.7207 0.08789-0.20508 0.1582-0.58008l-2.3789-5.9121h0.99609z"/><path d="m86.1 47.215q0-0.38086-0.05273-0.81445h0.89648q0.05273 0.25781 0.07031 0.5625 0.4043-0.26367 0.98438-0.46289 0.58594-0.19922 1.166-0.19922 0.89648 0 1.418 0.52148 0.52734 0.52148 0.52734 1.4824v4.4238h-0.92578v-4.3477q0-0.56836-0.29883-0.94336-0.29883-0.38086-0.84375-0.38086-0.54492 0-1.0781 0.16406-0.5332 0.16406-0.9375 0.42188v5.0859h-0.92578z"/><path d="m96.588 49.412q-0.79688 0.01758-1.3711 0.14648-0.57422 0.12305-0.94336 0.33984-0.36914 0.2168-0.54492 0.50977-0.17578 0.29297-0.17578 0.64453 0 0.49805 0.28125 0.73242t0.7793 0.23438q0.26953 0 0.5332-0.05859 0.26953-0.05859 0.52148-0.1582 0.25195-0.09961 0.48047-0.23438 0.23438-0.14062 0.43945-0.29883zm-3.6855-2.2266q0.2168-0.19922 0.50391-0.36328 0.29297-0.16406 0.61523-0.28125 0.32812-0.11719 0.67383-0.17578 0.35156-0.06445 0.69727-0.06445 0.97266 0 1.5469 0.48633t0.57422 1.3535v2.8184q0 0.3457 0.02344 0.56836 0.02344 0.22266 0.08203 0.35156 0.06445 0.12891 0.16406 0.18164 0.10547 0.04687 0.26367 0.04687 0.19922 0 0.4043-0.04102l0.14648 0.42773q-0.1582 0.15234-0.45117 0.24609-0.28711 0.09375-0.62109 0.09375-0.36914 0-0.59766-0.25781-0.22266-0.26367-0.28711-0.75-0.49805 0.46289-1.0898 0.73828-0.58594 0.26953-1.2598 0.26953-0.36914 0-0.69141-0.10547-0.31641-0.11133-0.55078-0.31641t-0.36914-0.50391q-0.12891-0.29883-0.12891-0.67969 0-0.50976 0.19336-0.88476 0.19922-0.375 0.52148-0.63867t0.73828-0.42774q0.42188-0.16406 0.86719-0.25781 0.45117-0.09375 0.89648-0.12305 0.44531-0.03516 0.82031-0.03516v-0.65039q0-0.62109-0.32227-0.90234t-0.90234-0.28125q-0.32812 0-0.61523 0.07617-0.28125 0.07617-0.52734 0.19336-0.24609 0.11719-0.45117 0.25781t-0.36914 0.26953z"/><path d="m100.62 46.4q0.0527 0.19336 0.0703 0.48047 0.17578-0.09375 0.39258-0.19922 0.22266-0.10547 0.47461-0.1875 0.25195-0.08203 0.52734-0.13476 0.2754-0.05859 0.55665-0.05859 0.48046 0 0.84375 0.15234 0.36914 0.15234 0.63867 0.50976 1.1719-0.66211 2.2266-0.66211 0.44531 0 0.77344 0.15234 0.33398 0.14648 0.54492 0.41016 0.2168 0.25781 0.32226 0.61523 0.10547 0.35156 0.10547 0.75586v4.4941h-0.92578v-4.4062q0-0.32226-0.0879-0.55664-0.082-0.24024-0.23437-0.39844-0.15235-0.1582-0.35743-0.23438-0.20507-0.07617-0.43945-0.07617-0.84961 0-1.6582 0.43359 0.0762 0.3457 0.0762 0.76172v4.4766h-0.92578v-4.3945q0-0.65625-0.29297-0.9668-0.28711-0.31055-0.83789-0.31055-0.44531 0-0.87891 0.14062-0.43359 0.13477-0.80859 0.32812v5.2031h-0.92578v-5.5898q-0.0059-0.4043-0.04687-0.73828z"/><path d="m112.32 47.027q-0.82617 0-1.248 0.56836-0.42188 0.5625-0.45118 1.2773h3.2871q-0.0234-0.75586-0.375-1.3008-0.35156-0.54492-1.2129-0.54492zm2.6367 4.5703q-0.41601 0.55078-1.0137 0.89648-0.5918 0.33984-1.5527 0.33984-1.2422 0-1.998-0.87891-0.75586-0.88477-0.75586-2.4902 0-1.4004 0.68555-2.2793 0.68554-0.88476 2.0098-0.88476 1.1191 0 1.7695 0.61523 0.65039 0.61524 0.73242 1.7168 0.0352 0.41602 0.0176 0.87305h-4.2422q0 1.0488 0.48046 1.8047 0.48047 0.75 1.3125 0.75 0.60352 0 1.0547-0.25195t0.83203-0.75z"/></g></g></g></svg>
