<svg viewBox="0 0 469 100" fill="none" xmlns="http://www.w3.org/2000/svg">
<rect x="3.5" y="3.5" width="93" height="93" rx="10.5" stroke="black" stroke-width="7"/>
<path d="M32 70.728L45.248 29H55.744L68.992 70.728H59.712L53.952 49.224C53.3547 47.0907 52.7573 44.8507 52.16 42.504C51.6053 40.1573 51.0293 37.8747 50.432 35.656H50.176C49.664 37.8747 49.1093 40.1573 48.512 42.504C47.9573 44.8507 47.3813 47.0907 46.784 49.224L40.96 70.728H32ZM40.448 60.36V53.512H60.416V60.36H40.448Z" fill="black"/>
<path d="M121 70.92L134.888 29H142.44L156.328 70.92H149.416L142.632 48.136C141.907 45.832 141.224 43.528 140.584 41.224C139.944 38.8773 139.304 36.5307 138.664 34.184H138.408C137.811 36.5307 137.171 38.8773 136.488 41.224C135.848 43.528 135.187 45.832 134.504 48.136L127.656 70.92H121ZM128.808 58.952V53.832H148.328V58.952H128.808ZM171.993 85C169.475 85 167.235 84.68 165.272 84.04C163.31 83.4427 161.774 82.5253 160.665 81.288C159.555 80.0933 159 78.5787 159 76.744C159 75.4213 159.406 74.1627 160.216 72.968C161.027 71.816 162.136 70.792 163.544 69.896V69.64C162.776 69.0853 162.115 68.4027 161.561 67.592C161.006 66.7387 160.729 65.6933 160.729 64.456C160.729 63.176 161.091 62.0453 161.817 61.064C162.542 60.04 163.331 59.2293 164.185 58.632V58.376C163.161 57.5653 162.222 56.4347 161.368 54.984C160.515 53.5333 160.089 51.8907 160.089 50.056C160.089 47.7093 160.643 45.704 161.752 44.04C162.904 42.376 164.376 41.096 166.168 40.2C168.003 39.304 170.009 38.856 172.185 38.856C173.038 38.856 173.849 38.9413 174.617 39.112C175.427 39.24 176.131 39.4107 176.729 39.624H187.8V44.488H181.785C182.382 45.128 182.873 45.96 183.257 46.984C183.683 47.9653 183.896 49.0533 183.896 50.248C183.896 52.5093 183.363 54.4507 182.297 56.072C181.273 57.6507 179.864 58.8667 178.072 59.72C176.323 60.5733 174.361 61 172.185 61C171.459 61 170.712 60.9147 169.944 60.744C169.219 60.5733 168.494 60.3387 167.769 60.04C167.257 60.4667 166.83 60.936 166.488 61.448C166.19 61.96 166.041 62.6 166.041 63.368C166.041 64.3067 166.425 65.0533 167.193 65.608C167.961 66.1627 169.326 66.44 171.289 66.44H177.049C180.76 66.44 183.555 67.0587 185.433 68.296C187.353 69.4907 188.312 71.4107 188.312 74.056C188.312 76.0613 187.63 77.896 186.265 79.56C184.942 81.224 183.064 82.5467 180.632 83.528C178.2 84.5093 175.321 85 171.993 85ZM172.952 80.712C174.787 80.712 176.366 80.456 177.688 79.944C179.054 79.432 180.121 78.728 180.889 77.832C181.657 76.9787 182.041 76.0613 182.041 75.08C182.041 73.7573 181.529 72.84 180.505 72.328C179.523 71.8587 178.094 71.624 176.216 71.624H171.417C170.691 71.624 169.966 71.5813 169.241 71.496C168.558 71.4107 167.897 71.304 167.257 71.176C166.275 71.8587 165.571 72.584 165.145 73.352C164.718 74.1627 164.505 74.9733 164.505 75.784C164.505 77.32 165.251 78.5147 166.744 79.368C168.28 80.264 170.35 80.712 172.952 80.712ZM172.185 56.84C173.294 56.84 174.297 56.584 175.193 56.072C176.089 55.5173 176.793 54.728 177.305 53.704C177.859 52.68 178.137 51.464 178.137 50.056C178.137 48.648 177.859 47.4533 177.305 46.472C176.793 45.4907 176.089 44.744 175.193 44.232C174.297 43.6773 173.294 43.4 172.185 43.4C170.521 43.4 169.112 43.976 167.96 45.128C166.808 46.28 166.232 47.9227 166.232 50.056C166.232 51.464 166.488 52.68 167 53.704C167.555 54.728 168.28 55.5173 169.176 56.072C170.072 56.584 171.075 56.84 172.185 56.84ZM207.109 71.688C204.25 71.688 201.669 71.048 199.365 69.768C197.104 68.4453 195.29 66.568 193.925 64.136C192.56 61.704 191.877 58.76 191.877 55.304C191.877 51.9333 192.56 49.032 193.925 46.6C195.29 44.1253 197.061 42.2267 199.237 40.904C201.413 39.5387 203.717 38.856 206.149 38.856C208.88 38.856 211.184 39.4747 213.061 40.712C214.981 41.9493 216.432 43.6773 217.413 45.896C218.394 48.1147 218.885 50.696 218.885 53.64C218.885 54.2373 218.842 54.856 218.757 55.496C218.714 56.0933 218.65 56.584 218.565 56.968H196.933L196.869 52.488H213.253C213.253 49.7573 212.656 47.6453 211.461 46.152C210.309 44.6587 208.581 43.912 206.277 43.912C204.912 43.912 203.589 44.296 202.309 45.064C201.029 45.832 199.962 47.0693 199.109 48.776C198.298 50.44 197.893 52.616 197.893 55.304C197.893 57.9067 198.362 60.04 199.301 61.704C200.24 63.368 201.456 64.6053 202.949 65.416C204.485 66.2267 206.149 66.632 207.941 66.632C209.349 66.632 210.65 66.4187 211.845 65.992C213.082 65.5653 214.277 64.9893 215.429 64.264L217.669 68.36C216.218 69.2987 214.597 70.088 212.805 70.728C211.056 71.368 209.157 71.688 207.109 71.688ZM226.178 70.92V39.624H231.49L232.002 43.976H232.194C233.645 42.568 235.202 41.3733 236.866 40.392C238.53 39.368 240.429 38.856 242.562 38.856C245.89 38.856 248.322 39.9227 249.858 42.056C251.394 44.1893 252.162 47.24 252.162 51.208V70.92H245.698V52.04C245.698 49.3093 245.271 47.368 244.418 46.216C243.607 45.0213 242.263 44.424 240.386 44.424C238.893 44.424 237.57 44.7867 236.418 45.512C235.309 46.2373 234.05 47.304 232.642 48.712V70.92H226.178ZM274.352 71.688C271.536 71.688 268.997 71.048 266.736 69.768C264.517 68.488 262.746 66.632 261.424 64.2C260.101 61.7253 259.44 58.76 259.44 55.304C259.44 51.848 260.165 48.904 261.616 46.472C263.066 43.9973 264.944 42.12 267.248 40.84C269.594 39.5173 272.133 38.856 274.864 38.856C276.869 38.856 278.618 39.2187 280.112 39.944C281.605 40.6267 282.906 41.4587 284.016 42.44L280.816 46.664C279.962 45.8533 279.088 45.2347 278.192 44.808C277.296 44.3813 276.293 44.168 275.184 44.168C273.392 44.168 271.813 44.6373 270.448 45.576C269.082 46.472 268.016 47.7733 267.248 49.48C266.48 51.144 266.095 53.0853 266.095 55.304C266.095 57.5227 266.458 59.464 267.184 61.128C267.952 62.792 268.997 64.0933 270.32 65.032C271.685 65.928 273.242 66.376 274.992 66.376C276.314 66.376 277.552 66.0987 278.704 65.544C279.898 64.9893 280.944 64.3067 281.84 63.496L284.528 67.784C283.077 69.064 281.477 70.0453 279.728 70.728C277.978 71.368 276.186 71.688 274.352 71.688ZM292.399 84.04C291.588 84.04 290.863 83.976 290.223 83.848C289.625 83.72 289.049 83.5707 288.495 83.4L289.711 78.344C290.009 78.4293 290.372 78.5147 290.799 78.6C291.225 78.728 291.631 78.792 292.015 78.792C293.721 78.792 295.108 78.216 296.175 77.064C297.241 75.9547 298.052 74.5467 298.607 72.84L299.247 70.728L286.831 39.624H293.423L299.247 55.816C299.716 57.1813 300.185 58.632 300.655 60.168C301.167 61.6613 301.657 63.1547 302.127 64.648H302.383C302.809 63.1973 303.215 61.7253 303.599 60.232C304.025 58.696 304.452 57.224 304.878 55.816L309.935 39.624H316.207L304.687 72.84C303.876 75.0587 302.937 77 301.871 78.664C300.804 80.3707 299.503 81.6933 297.967 82.632C296.431 83.5707 294.575 84.04 292.399 84.04ZM321.928 70.92V39.624H327.24L327.752 43.976H327.944C329.395 42.568 330.952 41.3733 332.616 40.392C334.28 39.368 336.179 38.856 338.312 38.856C341.64 38.856 344.072 39.9227 345.608 42.056C347.144 44.1893 347.912 47.24 347.912 51.208V70.92H341.448V52.04C341.448 49.3093 341.021 47.368 340.168 46.216C339.357 45.0213 338.013 44.424 336.136 44.424C334.643 44.424 333.32 44.7867 332.168 45.512C331.059 46.2373 329.8 47.304 328.392 48.712V70.92H321.928ZM364.79 71.688C362.998 71.688 361.398 71.3253 359.99 70.6C358.624 69.832 357.536 68.7867 356.726 67.464C355.958 66.0987 355.574 64.4987 355.574 62.664C355.574 59.2933 357.067 56.6907 360.054 54.856C363.04 53.0213 367.798 51.7413 374.326 51.016C374.326 49.8213 374.134 48.6907 373.75 47.624C373.408 46.5573 372.79 45.704 371.894 45.064C371.04 44.424 369.846 44.104 368.31 44.104C366.646 44.104 365.046 44.424 363.51 45.064C362.016 45.704 360.608 46.4507 359.286 47.304L356.854 42.952C357.92 42.2693 359.115 41.6293 360.438 41.032C361.76 40.392 363.168 39.88 364.662 39.496C366.198 39.0693 367.798 38.856 369.462 38.856C372.022 38.856 374.134 39.3893 375.798 40.456C377.504 41.5227 378.763 43.0373 379.574 45C380.384 46.9627 380.79 49.3307 380.79 52.104V70.92H375.478L374.966 67.336H374.774C373.366 68.5307 371.83 69.5547 370.166 70.408C368.502 71.2613 366.71 71.688 364.79 71.688ZM366.774 66.568C368.139 66.568 369.419 66.248 370.614 65.608C371.808 64.968 373.046 64.0507 374.326 62.856V55.112C371.211 55.496 368.736 56.008 366.902 56.648C365.11 57.288 363.808 58.0773 362.998 59.016C362.23 59.9547 361.845 61 361.845 62.152C361.845 63.688 362.315 64.8187 363.254 65.544C364.192 66.2267 365.366 66.568 366.774 66.568ZM390.053 70.92V39.624H395.365L395.877 44.04H396.069C397.392 42.5893 398.842 41.3733 400.421 40.392C402.042 39.368 403.813 38.856 405.733 38.856C408.08 38.856 409.936 39.368 411.301 40.392C412.666 41.416 413.69 42.824 414.373 44.616C415.909 42.952 417.488 41.5867 419.109 40.52C420.773 39.4107 422.586 38.856 424.549 38.856C427.834 38.856 430.245 39.9227 431.781 42.056C433.36 44.1893 434.149 47.24 434.149 51.208V70.92H427.685V52.04C427.685 49.3093 427.258 47.368 426.405 46.216C425.594 45.0213 424.272 44.424 422.437 44.424C421.328 44.424 420.197 44.7867 419.045 45.512C417.893 46.1947 416.656 47.2613 415.333 48.712V70.92H408.869V52.04C408.869 49.3093 408.442 47.368 407.589 46.216C406.778 45.0213 405.456 44.424 403.621 44.424C401.488 44.424 399.12 45.8533 396.517 48.712V70.92H390.053ZM456.672 71.688C453.813 71.688 451.232 71.048 448.928 69.768C446.666 68.4453 444.853 66.568 443.488 64.136C442.122 61.704 441.44 58.76 441.44 55.304C441.44 51.9333 442.122 49.032 443.488 46.6C444.853 44.1253 446.624 42.2267 448.8 40.904C450.976 39.5387 453.28 38.856 455.712 38.856C458.442 38.856 460.746 39.4747 462.624 40.712C464.544 41.9493 465.994 43.6773 466.976 45.896C467.957 48.1147 468.448 50.696 468.448 53.64C468.448 54.2373 468.405 54.856 468.32 55.496C468.277 56.0933 468.213 56.584 468.128 56.968H446.496L446.432 52.488H462.816C462.816 49.7573 462.218 47.6453 461.024 46.152C459.872 44.6587 458.144 43.912 455.84 43.912C454.474 43.912 453.152 44.296 451.872 45.064C450.592 45.832 449.525 47.0693 448.672 48.776C447.861 50.44 447.456 52.616 447.456 55.304C447.456 57.9067 447.925 60.04 448.864 61.704C449.802 63.368 451.018 64.6053 452.512 65.416C454.048 66.2267 455.712 66.632 457.503 66.632C458.912 66.632 460.213 66.4187 461.408 65.992C462.645 65.5653 463.84 64.9893 464.992 64.264L467.232 68.36C465.781 69.2987 464.16 70.088 462.368 70.728C460.618 71.368 458.72 71.688 456.672 71.688Z" fill="black"/>
</svg>
