<?xml version="1.0" encoding="UTF-8" standalone="no"?>
<!-- Created with Inkscape (http://www.inkscape.org/) -->

<svg
   width="167.27048"
   height="29.919777"
   viewBox="0 0 44.256977 7.9162742"
   version="1.1"
   id="svg5"
   xml:space="preserve"
   inkscape:version="1.2 (dc2aeda, 2022-05-15)"
   sodipodi:docname="g586.svg"
   xmlns:inkscape="http://www.inkscape.org/namespaces/inkscape"
   xmlns:sodipodi="http://sodipodi.sourceforge.net/DTD/sodipodi-0.dtd"
   xmlns="http://www.w3.org/2000/svg"
   xmlns:svg="http://www.w3.org/2000/svg"><sodipodi:namedview
     id="namedview7"
     pagecolor="#ffffff"
     bordercolor="#000000"
     borderopacity="0.25"
     inkscape:showpageshadow="2"
     inkscape:pageopacity="0.0"
     inkscape:pagecheckerboard="0"
     inkscape:deskcolor="#d1d1d1"
     inkscape:document-units="mm"
     showgrid="false"
     inkscape:zoom="3.0220204"
     inkscape:cx="67.339056"
     inkscape:cy="56.750113"
     inkscape:window-width="1440"
     inkscape:window-height="787"
     inkscape:window-x="0"
     inkscape:window-y="25"
     inkscape:window-maximized="0"
     inkscape:current-layer="g586" /><defs
     id="defs2"><rect
       x="45.177486"
       y="41.917255"
       width="113.40946"
       height="36.095413"
       id="rect408" /></defs><g
     inkscape:label="Layer 1"
     inkscape:groupmode="layer"
     id="layer1"
     transform="translate(-3.800675,-4.5085288)"><g
       id="g586"
       transform="translate(1.4148646,0.12055189)"><g
         id="g194"
         transform="matrix(0.01616226,0,0,0.01616226,2.3858104,4.3879773)"><g
           id="g138">
	<g
   id="g136">
		<path
   d="M 438.2,0 H 51.6 C 23.1,0 0,23.2 0,51.6 v 386.6 c 0,28.5 23.2,51.6 51.6,51.6 h 386.6 c 28.5,0 51.6,-23.2 51.6,-51.6 V 51.6 C 489.8,23.2 466.6,0 438.2,0 Z m 27.1,438.2 c 0,14.9 -12.2,27.1 -27.1,27.1 H 51.6 c -14.9,0 -27.1,-12.2 -27.1,-27.1 V 51.6 c 0,-14.9 12.2,-27.1 27.1,-27.1 h 386.6 c 14.9,0 27.1,12.2 27.1,27.1 z"
   id="path132" />
		<path
   d="m 256.4,113 c -0.1,-0.2 -0.2,-0.3 -0.2,-0.5 -0.2,-0.4 -0.4,-0.8 -0.6,-1.2 -0.2,-0.3 -0.4,-0.7 -0.6,-1 -0.2,-0.3 -0.5,-0.6 -0.7,-0.9 -0.3,-0.3 -0.5,-0.6 -0.8,-0.9 -0.3,-0.3 -0.5,-0.5 -0.8,-0.7 -0.3,-0.3 -0.7,-0.5 -1,-0.8 -0.3,-0.2 -0.6,-0.4 -0.9,-0.5 -0.4,-0.2 -0.8,-0.4 -1.3,-0.6 -0.2,-0.1 -0.3,-0.2 -0.5,-0.2 -0.2,-0.1 -0.3,-0.1 -0.5,-0.1 -0.5,-0.1 -0.9,-0.3 -1.4,-0.3 -0.3,-0.1 -0.7,-0.1 -1,-0.2 -0.4,0 -0.8,-0.1 -1.3,-0.1 -0.4,0 -0.8,0 -1.2,0.1 -0.4,0 -0.7,0.1 -1.1,0.2 -0.5,0.1 -0.9,0.2 -1.3,0.3 -0.2,0.1 -0.3,0.1 -0.5,0.1 -0.2,0.1 -0.3,0.2 -0.5,0.2 -0.4,0.2 -0.8,0.4 -1.2,0.6 -0.3,0.2 -0.6,0.4 -0.9,0.5 -0.4,0.2 -0.7,0.5 -1,0.8 -0.3,0.2 -0.6,0.5 -0.8,0.7 -0.3,0.3 -0.6,0.6 -0.8,0.9 -0.3,0.3 -0.5,0.6 -0.7,0.9 -0.2,0.3 -0.4,0.6 -0.6,1 -0.2,0.4 -0.4,0.8 -0.6,1.2 -0.1,0.2 -0.2,0.3 -0.2,0.5 l -91.5,255.6 c -2.3,6.4 1,13.4 7.4,15.7 1.4,0.5 2.8,0.7 4.1,0.7 5,0 9.7,-3.1 11.5,-8.1 l 26.2,-73.3 h 106.3 c 0.3,0 0.6,-0.1 1,-0.1 l 26.2,73.4 c 1.8,5 6.5,8.1 11.5,8.1 1.4,0 2.8,-0.2 4.1,-0.7 6.4,-2.3 9.7,-9.3 7.4,-15.7 z M 200,279 244.9,153.5 289.8,279 Z"
   id="path134" />
	</g>
</g><g
           id="g140">
</g><g
           id="g142">
</g><g
           id="g144">
</g><g
           id="g146">
</g><g
           id="g148">
</g><g
           id="g150">
</g><g
           id="g152">
</g><g
           id="g154">
</g><g
           id="g156">
</g><g
           id="g158">
</g><g
           id="g160">
</g><g
           id="g162">
</g><g
           id="g164">
</g><g
           id="g166">
</g><g
           id="g168">
</g></g><g
         aria-label="Agencyname"
         transform="matrix(0.49667395,0,0,0.48195482,-10.453369,-14.841615)"
         id="text406"
         style="font-weight:bold;font-family:'PT Sans';-inkscape-font-specification:'PT Sans Bold';white-space:pre;shape-inside:url(#rect408);display:inline;stroke-width:0;stroke-linecap:round;stroke-linejoin:round"><path
           d="m 47.533203,48.890321 h 2.689453 l -1.318359,-4.195313 z m 0.960938,-5.34375 h 0.966796 l 3.046875,9.18164 H 51.40625 l -0.978516,-3.128906 h -3.099609 l -0.984375,3.128906 h -0.990234 z"
           style="font-weight:normal;font-family:'Euphemia UCAS';-inkscape-font-specification:'Euphemia UCAS'"
           id="path923" /><path
           d="m 56.005859,50.073914 q 0.363282,0 0.615235,-0.117187 0.257812,-0.123047 0.421875,-0.345703 0.164062,-0.222657 0.234375,-0.533203 0.07617,-0.310547 0.07617,-0.691407 0,-0.287109 -0.08203,-0.550781 -0.08203,-0.269531 -0.251953,-0.46875 -0.164062,-0.199219 -0.421875,-0.316406 -0.257812,-0.123047 -0.609375,-0.123047 -0.427734,0 -0.708984,0.140625 -0.28125,0.134766 -0.451172,0.357422 -0.169922,0.222656 -0.240234,0.503906 -0.07031,0.28125 -0.07031,0.568359 0,0.292969 0.08789,0.574219 0.09375,0.28125 0.27539,0.503906 0.1875,0.222657 0.462891,0.363282 0.28125,0.134765 0.662109,0.134765 z m -1.365234,2.396485 q -0.263672,0.287109 -0.410156,0.574218 -0.140625,0.28711 -0.140625,0.556641 0,0.357422 0.152343,0.585938 0.152344,0.234375 0.392579,0.36914 0.240234,0.134766 0.539062,0.1875 0.298828,0.05273 0.597656,0.05273 0.164063,0 0.392578,-0.02344 0.234375,-0.01758 0.480469,-0.06445 0.251953,-0.04687 0.492188,-0.128906 0.246093,-0.07617 0.439453,-0.19336 0.193359,-0.117187 0.310547,-0.28125 0.123047,-0.158203 0.123047,-0.36914 0,-0.205078 -0.128907,-0.369141 -0.123047,-0.158203 -0.333984,-0.28125 -0.205078,-0.123047 -0.492188,-0.222656 -0.28125,-0.09961 -0.966796,-0.228516 -0.457032,-0.07031 -0.714844,-0.09375 -0.251953,-0.0293 -0.445313,-0.04102 -0.193359,-0.01758 -0.287109,-0.0293 z m 4.154297,-5.302735 q -0.234375,-0.0059 -0.433594,0.02344 -0.199219,0.0293 -0.392578,0.08789 0.146484,0.222657 0.246094,0.509766 0.105468,0.28125 0.105468,0.662109 0,0.574219 -0.199218,0.996094 -0.199219,0.416016 -0.533203,0.691406 -0.333985,0.269532 -0.767579,0.404297 -0.433593,0.128907 -0.902343,0.128907 -0.398438,0 -0.826172,-0.09961 -0.09375,0.01172 -0.240235,0.06445 -0.146484,0.05273 -0.287109,0.140625 -0.134766,0.08789 -0.234375,0.205078 -0.09961,0.111329 -0.09961,0.246094 0,0.152344 0.205078,0.240235 0.205078,0.08789 0.539062,0.152343 0.333985,0.05859 1.183594,0.175782 0.896484,0.146484 1.318359,0.269531 0.427735,0.117187 0.761719,0.316406 0.333985,0.199219 0.539063,0.486328 0.205078,0.292969 0.205078,0.714844 0,0.404297 -0.152344,0.697266 -0.152344,0.292968 -0.410156,0.498046 -0.251953,0.210938 -0.585938,0.339844 -0.333984,0.134766 -0.703125,0.210938 -0.36914,0.07617 -0.75,0.09961 -0.375,0.0293 -0.714843,0.0293 -0.539063,0 -0.990235,-0.09375 -0.445312,-0.09375 -0.767578,-0.292969 -0.322266,-0.193359 -0.503906,-0.498047 -0.181641,-0.298828 -0.181641,-0.714843 0,-0.222657 0.07617,-0.445313 0.08203,-0.216797 0.216797,-0.416016 0.140625,-0.199218 0.316406,-0.36914 0.181641,-0.169922 0.38086,-0.304688 -0.158204,-0.07617 -0.310547,-0.158203 -0.152344,-0.08789 -0.275391,-0.193359 -0.117187,-0.111328 -0.193359,-0.251953 -0.07617,-0.146485 -0.07617,-0.339844 0,-0.210938 0.123047,-0.386719 0.128906,-0.175781 0.310547,-0.316406 0.1875,-0.140625 0.392578,-0.234375 0.205078,-0.09375 0.363281,-0.134766 -0.492188,-0.28125 -0.744141,-0.714843 -0.251953,-0.439454 -0.251953,-1.095704 0,-0.533203 0.210938,-0.943359 0.216797,-0.416016 0.5625,-0.691406 0.345703,-0.275391 0.791015,-0.416016 0.445313,-0.146484 0.908203,-0.146484 0.404297,0 0.808594,0.111328 0.404297,0.111328 0.75586,0.333984 0.457031,-0.175781 0.884765,-0.246093 0.433594,-0.07031 0.820313,-0.07031 l -0.105469,0.75 z"
           style="font-weight:normal;font-family:'Euphemia UCAS';-inkscape-font-specification:'Euphemia UCAS'"
           id="path925" /><path
           d="m 62.632812,47.027039 q -0.826171,0 -1.248046,0.56836 -0.421875,0.5625 -0.451172,1.277343 h 3.287109 q -0.02344,-0.755859 -0.375,-1.300781 -0.351562,-0.544922 -1.212891,-0.544922 z m 2.636719,4.570313 q -0.416015,0.550781 -1.013672,0.896484 -0.591797,0.339844 -1.552734,0.339844 -1.242188,0 -1.998047,-0.878906 -0.755859,-0.884766 -0.755859,-2.490235 0,-1.40039 0.685547,-2.279297 0.685546,-0.884765 2.009765,-0.884765 1.119141,0 1.769531,0.615234 0.650391,0.615235 0.732422,1.716797 0.03516,0.416016 0.01758,0.873047 h -4.242187 q 0,1.048828 0.480469,1.804687 0.480468,0.75 1.3125,0.75 0.603515,0 1.054687,-0.251953 0.451172,-0.251953 0.832031,-0.75 z"
           style="font-weight:normal;font-family:'Euphemia UCAS';-inkscape-font-specification:'Euphemia UCAS'"
           id="path927" /><path
           d="m 66.869141,47.214539 q 0,-0.380859 -0.05273,-0.814453 h 0.896485 q 0.05273,0.257813 0.07031,0.5625 0.404297,-0.263672 0.984375,-0.46289 0.585938,-0.199219 1.166016,-0.199219 0.896484,0 1.417968,0.521484 0.527344,0.521485 0.527344,1.482422 v 4.423828 h -0.925781 v -4.347656 q 0,-0.568359 -0.298828,-0.943359 -0.298828,-0.38086 -0.84375,-0.38086 -0.544922,0 -1.078125,0.164063 -0.533203,0.164062 -0.9375,0.421875 v 5.085937 h -0.925781 z"
           style="font-weight:normal;font-family:'Euphemia UCAS';-inkscape-font-specification:'Euphemia UCAS'"
           id="path929" /><path
           d="m 78.623047,51.685242 q -0.351563,0.521485 -0.908203,0.832032 -0.556641,0.304687 -1.458985,0.304687 -1.318359,0 -2.097656,-0.914062 -0.779297,-0.919922 -0.779297,-2.367188 0,-1.40625 0.779297,-2.320312 0.785156,-0.919922 2.109375,-0.919922 0.791016,0 1.283203,0.240234 0.498047,0.234375 0.826172,0.632813 l -0.603516,0.550781 q -0.304687,-0.392578 -0.673828,-0.568359 -0.363281,-0.175782 -0.873047,-0.175782 -0.855468,0 -1.365234,0.697266 -0.509766,0.691406 -0.509766,1.769531 0,1.113281 0.544922,1.898438 0.544922,0.785156 1.359375,0.785156 0.679688,0 1.048828,-0.234375 0.375,-0.240234 0.667969,-0.65625 z"
           style="font-weight:normal;font-family:'Euphemia UCAS';-inkscape-font-specification:'Euphemia UCAS'"
           id="path931" /><path
           d="m 82.197266,51.462586 1.664062,-5.0625 h 1.001953 l -2.52539,6.808594 q -0.210938,0.544922 -0.433594,0.955078 -0.222656,0.410156 -0.498047,0.691406 -0.269531,0.28711 -0.644531,0.433594 -0.369141,0.152344 -0.914063,0.152344 -0.427734,0 -0.949219,-0.111328 l 0.169922,-0.884766 q 0.357422,0.146484 0.75,0.146484 0.369141,0 0.621094,-0.117187 0.251953,-0.111328 0.439453,-0.328125 0.1875,-0.216797 0.328125,-0.533203 0.146485,-0.316406 0.298828,-0.720703 0.08789,-0.205078 0.158203,-0.580078 l -2.378906,-5.91211 h 0.996094 z"
           style="font-weight:normal;font-family:'Euphemia UCAS';-inkscape-font-specification:'Euphemia UCAS'"
           id="path933" /><path
           d="m 86.099609,47.214539 q 0,-0.380859 -0.05273,-0.814453 h 0.896484 q 0.05273,0.257813 0.07031,0.5625 0.404297,-0.263672 0.984375,-0.46289 0.585937,-0.199219 1.166015,-0.199219 0.896485,0 1.417969,0.521484 0.527344,0.521485 0.527344,1.482422 v 4.423828 h -0.925781 v -4.347656 q 0,-0.568359 -0.298828,-0.943359 -0.298829,-0.38086 -0.84375,-0.38086 -0.544922,0 -1.078125,0.164063 -0.533204,0.164062 -0.9375,0.421875 v 5.085937 h -0.925782 z"
           style="font-weight:normal;font-family:'Euphemia UCAS';-inkscape-font-specification:'Euphemia UCAS'"
           id="path935" /><path
           d="m 96.587891,49.411805 q -0.796875,0.01758 -1.371094,0.146484 -0.574219,0.123047 -0.94336,0.339844 -0.36914,0.216797 -0.544921,0.509766 -0.175782,0.292968 -0.175782,0.644531 0,0.498047 0.28125,0.732422 0.28125,0.234375 0.779297,0.234375 0.269531,0 0.533203,-0.05859 0.269532,-0.05859 0.521485,-0.158203 0.251953,-0.09961 0.480468,-0.234375 0.234375,-0.140625 0.439454,-0.298828 z m -3.685547,-2.226563 q 0.216797,-0.199218 0.503906,-0.363281 0.292969,-0.164062 0.615234,-0.28125 0.328125,-0.117187 0.673828,-0.175781 0.351563,-0.06445 0.697266,-0.06445 0.972656,0 1.546875,0.486328 0.574219,0.486328 0.574219,1.353516 v 2.818359 q 0,0.345703 0.02344,0.568359 0.02344,0.222657 0.08203,0.351563 0.06445,0.128906 0.164062,0.18164 0.105469,0.04687 0.263672,0.04687 0.199219,0 0.404297,-0.04102 l 0.146484,0.427734 q -0.158203,0.152344 -0.451172,0.246094 -0.287109,0.09375 -0.621093,0.09375 -0.369141,0 -0.597657,-0.257813 -0.222656,-0.263671 -0.287109,-0.75 -0.498047,0.462891 -1.089844,0.738282 -0.585937,0.269531 -1.259765,0.269531 -0.369141,0 -0.691407,-0.105469 -0.316406,-0.111328 -0.550781,-0.316406 -0.234375,-0.205078 -0.369141,-0.503906 -0.128906,-0.298828 -0.128906,-0.679688 0,-0.509765 0.19336,-0.884765 0.199218,-0.375 0.521484,-0.638672 0.322266,-0.263672 0.738281,-0.427735 0.421875,-0.164062 0.867188,-0.257812 0.451172,-0.09375 0.896484,-0.123047 0.445313,-0.03516 0.820313,-0.03516 v -0.650391 q 0,-0.621094 -0.322266,-0.902344 -0.322266,-0.28125 -0.902344,-0.28125 -0.328125,0 -0.615234,0.07617 -0.28125,0.07617 -0.527344,0.19336 -0.246094,0.117187 -0.451172,0.257812 -0.205078,0.140625 -0.36914,0.269531 z"
           style="font-weight:normal;font-family:'Euphemia UCAS';-inkscape-font-specification:'Euphemia UCAS'"
           id="path937" /><path
           d="m 100.61914,46.400086 q 0.0527,0.19336 0.0703,0.480469 0.17578,-0.09375 0.39258,-0.199219 0.22266,-0.105469 0.47461,-0.1875 0.25195,-0.08203 0.52734,-0.134765 0.2754,-0.05859 0.55665,-0.05859 0.48046,0 0.84375,0.152344 0.36914,0.152343 0.63867,0.509765 1.17187,-0.662109 2.22656,-0.662109 0.44531,0 0.77344,0.152344 0.33398,0.146484 0.54492,0.410156 0.2168,0.257812 0.32226,0.615234 0.10547,0.351563 0.10547,0.75586 v 4.49414 h -0.92578 v -4.40625 q 0,-0.322265 -0.0879,-0.55664 -0.082,-0.240235 -0.23437,-0.398438 -0.15235,-0.158203 -0.35743,-0.234375 -0.20507,-0.07617 -0.43945,-0.07617 -0.84961,0 -1.6582,0.433594 0.0762,0.345703 0.0762,0.761719 v 4.476562 h -0.92578 V 48.33368 q 0,-0.65625 -0.29297,-0.966797 -0.28711,-0.310547 -0.83789,-0.310547 -0.44531,0 -0.87891,0.140625 -0.43359,0.134766 -0.80859,0.328125 v 5.203125 h -0.925782 v -5.589844 q -0.0059,-0.404296 -0.04687,-0.738281 z"
           style="font-weight:normal;font-family:'Euphemia UCAS';-inkscape-font-specification:'Euphemia UCAS'"
           id="path939" /><path
           d="m 112.32031,47.027039 q -0.82617,0 -1.24804,0.56836 -0.42188,0.5625 -0.45118,1.277343 h 3.28711 q -0.0234,-0.755859 -0.375,-1.300781 -0.35156,-0.544922 -1.21289,-0.544922 z m 2.63672,4.570313 q -0.41601,0.550781 -1.01367,0.896484 -0.5918,0.339844 -1.55273,0.339844 -1.24219,0 -1.99805,-0.878906 -0.75586,-0.884766 -0.75586,-2.490235 0,-1.40039 0.68555,-2.279297 0.68554,-0.884765 2.00976,-0.884765 1.11914,0 1.76953,0.615234 0.65039,0.615235 0.73242,1.716797 0.0352,0.416016 0.0176,0.873047 h -4.24218 q 0,1.048828 0.48046,1.804687 0.48047,0.75 1.3125,0.75 0.60352,0 1.05469,-0.251953 0.45117,-0.251953 0.83203,-0.75 z"
           style="font-weight:normal;font-family:'Euphemia UCAS';-inkscape-font-specification:'Euphemia UCAS'"
           id="path941" /></g></g></g></svg>
