<?xml version="1.0" encoding="iso-8859-1"?>
<!-- Generator: Adobe Illustrator 19.0.0, SVG Export Plug-In . SVG Version: 6.00 Build 0)  -->
<svg version="1.1" id="Layer_1" xmlns="http://www.w3.org/2000/svg" xmlns:xlink="http://www.w3.org/1999/xlink" x="0px" y="0px"
	 viewBox="0 0 512 512" style="enable-background:new 0 0 512 512;" xml:space="preserve">
<g>
	<g>
		<path d="M256,0C127.973,0,23.814,104.159,23.814,232.186c0,118.673,85.268,183.891,119.07,202.776v35.364
			c0,22.979,18.695,41.674,41.674,41.674h142.884c22.979,0,41.674-18.695,41.674-41.674v-35.364
			c33.802-18.886,119.07-82.218,119.07-202.776C488.186,104.159,384.027,0,256,0z M333.395,470.326c0,3.283-2.671,5.953-5.953,5.953
			H184.558c-3.283,0-5.953-2.671-5.953-5.953v-29.767h154.791V470.326z M333.395,404.837H178.605V250.047h154.791V404.837z
			 M333.395,214.326H178.605v-29.767c0-3.283,2.671-5.953,5.953-5.953h142.884c3.283,0,5.953,2.671,5.953,5.953V214.326z
			 M369.116,392.879V184.558c0-22.979-18.695-41.674-41.674-41.674H184.558c-22.979,0-41.674,18.695-41.674,41.674v208.321
			c-52.032-36.469-83.349-95.701-83.349-160.693c0-108.331,88.134-196.465,196.465-196.465s196.465,88.134,196.465,196.465
			C452.465,297.178,421.149,356.41,369.116,392.879z"/>
	</g>
</g>
<g>
</g>
<g>
</g>
<g>
</g>
<g>
</g>
<g>
</g>
<g>
</g>
<g>
</g>
<g>
</g>
<g>
</g>
<g>
</g>
<g>
</g>
<g>
</g>
<g>
</g>
<g>
</g>
<g>
</g>
</svg>
