<svg width="24px" height="24px" viewBox="0 0 24 24" id="Layer_1" data-name="Layer 1" xmlns="http://www.w3.org/2000/svg" xmlns:xlink="http://www.w3.org/1999/xlink"><defs><style>.cls-1{fill:none;}.cls-2{clip-path:url(#clip-path);}</style><clipPath id="clip-path"><rect class="cls-1" width="24" height="24"/></clipPath></defs><title>marketing</title><g class="cls-2"><path d="M21.33,18.13l-.2,0L2.48,14.38a1,1,0,0,1-.81-1V9.67a1,1,0,0,1,.81-1L21.13,5a1,1,0,0,1,.83.2,1,1,0,0,1,.37.78V17.13a1,1,0,0,1-.37.77A1,1,0,0,1,21.33,18.13ZM3.67,12.58l16.66,3.33V7.16L3.67,10.49Z"/><path d="M2.67,16.26a1,1,0,0,1-1-1V7.8a1,1,0,1,1,2,0v7.46A1,1,0,0,1,2.67,16.26Z"/><path d="M9.67,19.06A4.27,4.27,0,0,1,5.4,14.8a3.94,3.94,0,0,1,.09-.87,1,1,0,0,1,1.2-.75,1,1,0,0,1,.75,1.2,2.39,2.39,0,0,0,0,.42,2.27,2.27,0,0,0,4.49.45,1,1,0,0,1,1.17-.79,1,1,0,0,1,.79,1.18A4.28,4.28,0,0,1,9.67,19.06Z"/><path d="M17.52,17.2a1,1,0,0,1-1-1V6.7a1,1,0,1,1,2,0v9.5A1,1,0,0,1,17.52,17.2Z"/></g></svg>