<?xml version="1.0" encoding="iso-8859-1"?>
<!-- Generator: Adobe Illustrator 16.0.0, SVG Export Plug-In . SVG Version: 6.00 Build 0)  -->
<!DOCTYPE svg PUBLIC "-//W3C//DTD SVG 1.1//EN" "http://www.w3.org/Graphics/SVG/1.1/DTD/svg11.dtd">
<svg version="1.1" id="Capa_1" xmlns="http://www.w3.org/2000/svg" xmlns:xlink="http://www.w3.org/1999/xlink" x="0px" y="0px"
	 width="390px" height="390px" viewBox="0 0 390 390" style="enable-background:new 0 0 390 390;" xml:space="preserve">
<g>
	<path d="M0,0v390h390V0H0z M305,30h55v55h-55V30z M235,30h60v55h-60V30z M165,30h60v55h-60V30z M30,30h55v55H30V30z M30,95h55v60
		H30V95z M30,225v-60h51.445L95,143.728V95h31.047l6.372-10H95V30h60v55h-7.279L165,112.853V95h60v60h-33.852l6.204,10H225v22.192
		l10-10.676V165h10.788l9.367-10H235V95h60v39.161l10,5.292V95h55v60h-25.619l18.897,10H360v18.407l-74.449-39.396l-69.935,74.66
		L141.249,98.798L30,273.396V235h6.844l6.372-10H30z M155,360H95v-55h60V360z M225,360h-60v-55h60V360z M295,360h-60v-55h60V360z
		 M360,360h-55v-55h55V360z M360,295h-55v-60h55V295z M305,225v-28.979l-10-5.292V225h-36.905l-9.367,10H295v60h-60v-45.346
		l-10,10.677V295h-60v-60h16.938l-6.204-10H165v-17.303l-10-16.119V225h-52.496l-6.372,10H155v60H95v-58.225l-10,15.695V295H57.902
		l-6.371,10H85v55H30v-45.66l111.001-174.21l71.051,114.528l78.065-83.34L360,208.297V225H305z"/>
</g>
<g>
</g>
<g>
</g>
<g>
</g>
<g>
</g>
<g>
</g>
<g>
</g>
<g>
</g>
<g>
</g>
<g>
</g>
<g>
</g>
<g>
</g>
<g>
</g>
<g>
</g>
<g>
</g>
<g>
</g>
</svg>
