<?xml version="1.0" encoding="iso-8859-1"?>
<!-- Generator: Adobe Illustrator 19.0.0, SVG Export Plug-In . SVG Version: 6.00 Build 0)  -->
<svg version="1.1" id="Layer_1" xmlns="http://www.w3.org/2000/svg" xmlns:xlink="http://www.w3.org/1999/xlink" x="0px" y="0px"
	 viewBox="0 0 494.72 494.72" style="enable-background:new 0 0 494.72 494.72;" xml:space="preserve">
<g>
	<path d="M323.191,4.266L171.522,47.394L4.86,0v443.062l166.662,47.394l151.669-43.128L489.86,494.72V51.659L323.191,4.266z
		 M34.86,177.011l121.662,34.597v106.102L34.86,283.113V177.011z M308.191,145.822l-121.669,34.597V74.318L308.191,39.72V145.822z
		 M308.191,177.011v106.102L186.522,317.71V211.608L308.191,177.011z M186.522,348.899l121.669-34.597v106.101L186.522,455V348.899z
		 M338.191,177.011l121.669,34.597V317.71l-121.669-34.597V177.011z M459.86,180.419l-121.669-34.597V39.72L459.86,74.317V180.419z
		 M156.522,74.317v106.101L34.86,145.822V39.721L156.522,74.317z M34.86,314.302l121.662,34.597V455L34.86,420.403V314.302z
		 M338.191,420.403V314.302l121.669,34.597V455L338.191,420.403z"/>
</g>
<g>
</g>
<g>
</g>
<g>
</g>
<g>
</g>
<g>
</g>
<g>
</g>
<g>
</g>
<g>
</g>
<g>
</g>
<g>
</g>
<g>
</g>
<g>
</g>
<g>
</g>
<g>
</g>
<g>
</g>
</svg>
